<svg width="199" height="189" viewBox="0 0 199 189" fill="none" xmlns="http://www.w3.org/2000/svg">
<path d="M104.492 1.29324C106.805 2.31247 110.328 8.16693 123.548 32.9691C140.014 63.862 153.845 89.9445 157.743 97.4516C158.926 99.7294 161.925 105.3 164.41 109.831C166.895 114.363 175.571 130.573 183.689 145.852C197.797 172.403 198.428 173.842 197.939 178.314C197.278 184.352 193.796 187.705 188.183 187.705C183.498 187.705 179.655 184.459 175.964 177.389C171.644 169.114 167.016 160.514 163.196 153.661C161.14 149.973 157.879 143.938 155.951 140.25C154.021 136.562 148.498 126.117 143.679 117.039C138.859 107.961 133.453 97.7477 131.667 94.3433C122.577 77.0172 115.847 64.3644 110.272 54.1101C106.877 47.8689 103.123 40.7898 101.927 38.3779C100.732 35.966 99.4799 33.9936 99.1447 33.9936C98.8104 33.9936 96.6389 37.5918 94.319 41.9886C91.9991 46.3853 88.5941 52.769 86.7516 56.1734C84.9101 59.5777 80.815 67.2375 77.6535 73.1951C66.9328 93.3932 65.8609 95.3739 65.0983 96.4065C64.6789 96.9739 62.073 101.848 59.3068 107.239C56.5416 112.629 52.2799 120.753 49.838 125.292C47.8018 129.076 50.47 133.679 54.766 133.792L66.5197 134.102C90.432 134.733 94.6841 135.645 100.193 141.324C103.99 145.237 115.058 166.496 113.913 167.675C113.542 168.057 111.12 167.342 108.53 166.087C105.94 164.832 99.2227 162.219 93.6032 160.28L84.9704 157.303C83.9214 156.941 82.8194 156.756 81.7098 156.756H58.3571C55.3238 156.756 52.6564 156.736 50.302 156.718C39.7603 156.639 35.4927 156.607 32.7565 158.638C30.8954 160.019 29.7428 162.355 27.8061 166.28L27.8061 166.28L27.8057 166.281C27.1697 167.569 26.4492 169.029 25.5914 170.683C19.0531 183.287 17.3381 185.639 13.461 187.309C10.5817 188.548 9.62071 188.53 6.33406 187.175C4.24437 186.313 2.0197 184.759 1.39119 183.72C-0.388243 180.784 -0.476515 174.084 1.21785 170.677C3.57875 165.928 20.0702 134.778 21.148 133.029C22.8564 130.258 35.1002 106.918 35.1002 106.433C35.1002 106.173 36.6144 103.347 38.4659 100.152C40.3174 96.9574 43.537 91.0937 45.6217 87.1219C47.7053 83.1502 51.8436 75.2583 54.817 69.5844C57.7904 63.9105 60.6312 58.5719 61.1286 57.7208C62.7279 54.985 75.2514 31.8096 82.3121 18.5192C86.0802 11.4269 90.5167 4.34686 92.172 2.78705C95.4787 -0.331542 99.6534 -0.838072 104.492 1.29324Z" fill="url(#paint0_linear_5_63)"/>
<path d="M104.472 89.9589C106.936 94.6404 110.29 101.023 111.923 104.144C113.557 107.264 116.374 112.603 118.182 116.007C119.991 119.412 122.933 124.982 124.721 128.387C126.51 131.791 129.871 138.058 132.191 142.314C148.481 172.189 149.455 174.283 148.85 178.122C147.956 183.805 143.765 187.705 138.552 187.705L138.34 187.705C137.047 187.706 136.003 187.706 135.026 187.451C130.92 186.378 127.995 180.786 112.783 151.701L112.19 150.567C109.075 144.609 102.528 132.32 97.6427 123.259C91.4537 111.781 88.7862 105.804 88.8483 103.554C88.9334 100.446 97.928 81.448 99.3141 81.448C99.6864 81.448 102.007 85.2774 104.472 89.9589Z" fill="url(#paint1_linear_5_63)"/>
<defs>
<linearGradient id="paint0_linear_5_63" x1="-85" y1="-3.40106e-06" x2="148.5" y2="263.5" gradientUnits="userSpaceOnUse">
<stop offset="0.464316" stop-color="#619DC8"/>
<stop offset="0.703442" stop-color="#89CAF8"/>
</linearGradient>
<linearGradient id="paint1_linear_5_63" x1="-85" y1="-3.40106e-06" x2="148.5" y2="263.5" gradientUnits="userSpaceOnUse">
<stop offset="0.464316" stop-color="#619DC8"/>
<stop offset="0.703442" stop-color="#89CAF8"/>
</linearGradient>
</defs>
</svg>
