<svg width="612" height="189" viewBox="0 0 612 189" fill="none" xmlns="http://www.w3.org/2000/svg">
<path d="M347.417 111.389V79.2014L367.934 78.6135V63.2114H346.805L347.184 41.0315L332.903 40L332.928 91.0652C332.943 121.194 333.363 143.956 333.951 146.585C336.348 157.299 342.67 161.419 357.675 162.05L367.934 162.481V146.978L358.975 146.617C353.39 146.393 349.528 145.752 348.717 144.917C347.706 143.875 347.417 136.409 347.417 111.389Z" fill="url(#paint0_linear_0_1)"/>
<path d="M347.417 111.389V79.2014L367.934 78.6135V63.2114H346.805L347.184 41.0315L332.903 40L332.928 91.0652C332.943 121.194 333.363 143.956 333.951 146.585C336.348 157.299 342.67 161.419 357.675 162.05L367.934 162.481V146.978L358.975 146.617C353.39 146.393 349.528 145.752 348.717 144.917C347.706 143.875 347.417 136.409 347.417 111.389Z" fill="#6FB5E7" fill-opacity="0.2"/>
<path d="M407.958 77.6892L415.457 77.1382L416.102 62.1797L411.283 62.2715C405.156 62.3891 398.079 64.3915 393.515 67.2986L389.951 69.5693V63.2114H374.939V162.338L389.451 161.731L389.951 126.14C390.394 94.6819 390.66 90.1193 392.241 86.8459C395.194 80.7346 399.332 78.3237 407.958 77.6892Z" fill="url(#paint1_linear_0_1)"/>
<path d="M407.958 77.6892L415.457 77.1382L416.102 62.1797L411.283 62.2715C405.156 62.3891 398.079 64.3915 393.515 67.2986L389.951 69.5693V63.2114H374.939V162.338L389.451 161.731L389.951 126.14C390.394 94.6819 390.66 90.1193 392.241 86.8459C395.194 80.7346 399.332 78.3237 407.958 77.6892Z" fill="#6FB5E7" fill-opacity="0.2"/>
<path d="M523.622 85.1899C518.845 74.6158 509.589 66.7374 498.419 63.7385C492.257 62.0838 481.213 61.8559 474.427 63.2434C461.057 65.9751 450.333 76.545 445.729 91.5293C442.783 101.117 442.63 123.401 445.448 132.33C450.485 148.289 459.85 157.946 473.933 161.708C489.822 165.953 508.555 160.577 517.642 149.167C521.052 144.885 527.06 132.994 527.061 130.525C527.062 129.608 524.897 129.235 519.569 129.235H512.077L510.688 132.663C508.905 137.062 503.539 143.36 499.942 145.278C496.973 146.86 479.298 147.397 472.987 146.096C468.067 145.081 462.618 138.851 460.394 131.697C457.531 122.484 457.788 99.9929 460.849 91.9658C463.629 84.6743 465.589 82.3438 471.119 79.7576C476.09 77.4333 491.627 76.8328 498.189 78.7114C502.501 79.9452 507.388 84.7846 509.814 90.2202L511.549 94.1064L518.806 94.1331C527.274 94.164 527.492 93.7596 523.622 85.1899Z" fill="url(#paint2_linear_0_1)"/>
<path d="M523.622 85.1899C518.845 74.6158 509.589 66.7374 498.419 63.7385C492.257 62.0838 481.213 61.8559 474.427 63.2434C461.057 65.9751 450.333 76.545 445.729 91.5293C442.783 101.117 442.63 123.401 445.448 132.33C450.485 148.289 459.85 157.946 473.933 161.708C489.822 165.953 508.555 160.577 517.642 149.167C521.052 144.885 527.06 132.994 527.061 130.525C527.062 129.608 524.897 129.235 519.569 129.235H512.077L510.688 132.663C508.905 137.062 503.539 143.36 499.942 145.278C496.973 146.86 479.298 147.397 472.987 146.096C468.067 145.081 462.618 138.851 460.394 131.697C457.531 122.484 457.788 99.9929 460.849 91.9658C463.629 84.6743 465.589 82.3438 471.119 79.7576C476.09 77.4333 491.627 76.8328 498.189 78.7114C502.501 79.9452 507.388 84.7846 509.814 90.2202L511.549 94.1064L518.806 94.1331C527.274 94.164 527.492 93.7596 523.622 85.1899Z" fill="#6FB5E7" fill-opacity="0.2"/>
<path d="M600.502 69.7529C598.756 68.3809 594.692 66.2731 591.469 65.0713C586.984 63.398 582.794 62.8173 573.6 62.5945C552.907 62.0941 542.37 65.5161 537.323 74.3777C534.933 78.5753 534.581 80.2732 534.615 87.4543C534.688 103.28 540.37 108.354 567.595 116.901C587.375 123.111 593.45 126.126 595.955 130.972C598.568 136.03 596.121 143.975 591.378 145.834C589.925 146.403 583.723 147.146 577.596 147.484C558.781 148.524 551.188 145.137 548.826 134.651L547.606 129.235H533.79L534.322 135.283C535.286 146.245 540.399 154.587 548.89 159.052C558.363 164.034 586.801 164.776 596.607 160.299C606.933 155.584 611.105 148.198 611.12 134.61C611.14 117.108 605.677 112.298 574.601 102.461C565.244 99.4996 555.917 96.1128 553.876 94.9368C547.694 91.3725 546.916 85.025 552.072 80.2332C554.078 78.368 555.7 78.1699 568.95 78.1699C577.012 78.1699 585.3 78.5403 587.369 78.9922C591.819 79.965 594.275 83.2825 595.067 89.3938L595.618 93.6443L610.416 94.2559L609.744 88.3623C608.943 81.3359 604.912 73.2202 600.502 69.7529Z" fill="url(#paint3_linear_0_1)"/>
<path d="M600.502 69.7529C598.756 68.3809 594.692 66.2731 591.469 65.0713C586.984 63.398 582.794 62.8173 573.6 62.5945C552.907 62.0941 542.37 65.5161 537.323 74.3777C534.933 78.5753 534.581 80.2732 534.615 87.4543C534.688 103.28 540.37 108.354 567.595 116.901C587.375 123.111 593.45 126.126 595.955 130.972C598.568 136.03 596.121 143.975 591.378 145.834C589.925 146.403 583.723 147.146 577.596 147.484C558.781 148.524 551.188 145.137 548.826 134.651L547.606 129.235H533.79L534.322 135.283C535.286 146.245 540.399 154.587 548.89 159.052C558.363 164.034 586.801 164.776 596.607 160.299C606.933 155.584 611.105 148.198 611.12 134.61C611.14 117.108 605.677 112.298 574.601 102.461C565.244 99.4996 555.917 96.1128 553.876 94.9368C547.694 91.3725 546.916 85.025 552.072 80.2332C554.078 78.368 555.7 78.1699 568.95 78.1699C577.012 78.1699 585.3 78.5403 587.369 78.9922C591.819 79.965 594.275 83.2825 595.067 89.3938L595.618 93.6443L610.416 94.2559L609.744 88.3623C608.943 81.3359 604.912 73.2202 600.502 69.7529Z" fill="#6FB5E7" fill-opacity="0.2"/>
<path d="M325.4 161.731L325.916 40.5156H310.872L311.388 161.731H325.4Z" fill="url(#paint4_linear_0_1)"/>
<path d="M325.4 161.731L325.916 40.5156H310.872L311.388 161.731H325.4Z" fill="#6FB5E7" fill-opacity="0.2"/>
<path d="M436.489 161.731V63.7273L421.977 63.1206V162.338L436.489 161.731Z" fill="url(#paint5_linear_0_1)"/>
<path d="M436.489 161.731V63.7273L421.977 63.1206V162.338L436.489 161.731Z" fill="#6FB5E7" fill-opacity="0.2"/>
<path fill-rule="evenodd" clip-rule="evenodd" d="M274.619 64.0862C277.887 65.1353 282.655 67.4781 285.216 69.2937L289.87 72.595V63.2114H304.902V86.8459L304.643 112.471L304.382 161.731H290.371L290.064 157.347C289.894 154.936 289.526 152.962 289.246 152.962C288.966 152.962 287.183 154.183 285.287 155.675C280.136 159.724 269.714 163.28 263.054 163.263C256.09 163.244 246.231 160.946 240.549 158.015C238.226 156.817 234.026 153.402 231.214 150.425C220.746 139.341 216.395 123.21 218.528 103.4C219.141 97.6994 220.077 92.4764 220.607 91.7925C221.137 91.1085 221.913 89.3887 222.331 87.9702C224.131 81.8599 232.486 71.9338 239.285 67.8259C248.565 62.2201 263.782 60.6096 274.619 64.0862ZM235.709 93.9526C238.216 87.3276 243.805 81.0182 248.925 79.0303C251.14 78.1709 256.385 77.7871 263.85 77.9377C273.914 78.143 275.827 78.4721 279.094 80.5642C287.531 85.9699 290.292 95.0101 289.69 115.26C289.338 127.1 288.974 129.425 286.664 134.582C284.731 138.896 282.891 141.213 279.698 143.351C275.705 146.025 274.46 146.285 264.094 146.604C254.156 146.91 252.298 146.686 248.332 144.707C242.622 141.858 237.396 135.584 235.11 128.832C232.395 120.816 232.721 101.848 235.709 93.9526Z" fill="url(#paint6_linear_0_1)"/>
<path fill-rule="evenodd" clip-rule="evenodd" d="M274.619 64.0862C277.887 65.1353 282.655 67.4781 285.216 69.2937L289.87 72.595V63.2114H304.902V86.8459L304.643 112.471L304.382 161.731H290.371L290.064 157.347C289.894 154.936 289.526 152.962 289.246 152.962C288.966 152.962 287.183 154.183 285.287 155.675C280.136 159.724 269.714 163.28 263.054 163.263C256.09 163.244 246.231 160.946 240.549 158.015C238.226 156.817 234.026 153.402 231.214 150.425C220.746 139.341 216.395 123.21 218.528 103.4C219.141 97.6994 220.077 92.4764 220.607 91.7925C221.137 91.1085 221.913 89.3887 222.331 87.9702C224.131 81.8599 232.486 71.9338 239.285 67.8259C248.565 62.2201 263.782 60.6096 274.619 64.0862ZM235.709 93.9526C238.216 87.3276 243.805 81.0182 248.925 79.0303C251.14 78.1709 256.385 77.7871 263.85 77.9377C273.914 78.143 275.827 78.4721 279.094 80.5642C287.531 85.9699 290.292 95.0101 289.69 115.26C289.338 127.1 288.974 129.425 286.664 134.582C284.731 138.896 282.891 141.213 279.698 143.351C275.705 146.025 274.46 146.285 264.094 146.604C254.156 146.91 252.298 146.686 248.332 144.707C242.622 141.858 237.396 135.584 235.11 128.832C232.395 120.816 232.721 101.848 235.709 93.9526Z" fill="#6FB5E7" fill-opacity="0.2"/>
<path d="M436.512 55.0491V40.6064L422 40V55.6558L436.512 55.0491Z" fill="url(#paint7_linear_0_1)"/>
<path d="M104.492 1.29324C106.805 2.31247 110.328 8.16693 123.548 32.9691C140.014 63.862 153.845 89.9445 157.743 97.4516C158.926 99.7294 161.925 105.3 164.41 109.831C166.895 114.363 175.571 130.573 183.689 145.852C197.797 172.403 198.428 173.842 197.939 178.314C197.278 184.352 193.796 187.705 188.183 187.705C183.498 187.705 179.655 184.459 175.964 177.389C171.644 169.114 167.016 160.514 163.196 153.661C161.14 149.973 157.879 143.938 155.951 140.25C154.021 136.562 148.498 126.117 143.679 117.039C138.859 107.961 133.453 97.7477 131.667 94.3433C122.577 77.0172 115.847 64.3644 110.272 54.1101C106.877 47.8689 103.123 40.7898 101.927 38.3779C100.732 35.966 99.4799 33.9936 99.1447 33.9936C98.8104 33.9936 96.6389 37.5918 94.319 41.9886C91.9991 46.3853 88.5941 52.769 86.7516 56.1734C84.9101 59.5777 80.815 67.2375 77.6535 73.1951C66.9328 93.3932 65.8609 95.3739 65.0983 96.4065C64.6789 96.9739 62.073 101.848 59.3068 107.239C56.5416 112.629 52.2799 120.753 49.838 125.292C47.8018 129.076 50.47 133.679 54.766 133.792L66.5197 134.102C90.432 134.733 94.6841 135.645 100.193 141.324C103.99 145.237 115.058 166.496 113.913 167.675C113.542 168.057 111.12 167.342 108.53 166.087C105.94 164.832 99.2227 162.219 93.6032 160.28L84.9704 157.303C83.9214 156.941 82.8194 156.756 81.7098 156.756H58.3571C55.3238 156.756 52.6564 156.736 50.302 156.718C39.7603 156.639 35.4927 156.607 32.7565 158.638C30.8954 160.019 29.7428 162.355 27.8061 166.28L27.8061 166.28L27.8057 166.281C27.1697 167.569 26.4492 169.029 25.5914 170.683C19.0531 183.287 17.3381 185.639 13.461 187.309C10.5817 188.548 9.62071 188.53 6.33406 187.175C4.24437 186.313 2.0197 184.759 1.39119 183.72C-0.388243 180.784 -0.476515 174.084 1.21785 170.677C3.57875 165.928 20.0702 134.778 21.148 133.029C22.8564 130.258 35.1002 106.918 35.1002 106.433C35.1002 106.173 36.6144 103.347 38.4659 100.152C40.3174 96.9574 43.537 91.0937 45.6217 87.1219C47.7053 83.1502 51.8436 75.2583 54.817 69.5844C57.7904 63.9105 60.6312 58.5719 61.1286 57.7208C62.7279 54.985 75.2514 31.8096 82.3121 18.5192C86.0802 11.4269 90.5167 4.34686 92.172 2.78705C95.4787 -0.331542 99.6534 -0.838072 104.492 1.29324Z" fill="url(#paint8_linear_0_1)"/>
<path d="M104.472 89.9589C106.936 94.6404 110.29 101.023 111.923 104.144C113.557 107.264 116.374 112.603 118.182 116.007C119.991 119.412 122.933 124.982 124.721 128.387C126.51 131.791 129.871 138.058 132.191 142.314C148.481 172.189 149.455 174.283 148.85 178.122C147.956 183.805 143.765 187.705 138.552 187.705L138.34 187.705C137.047 187.706 136.003 187.706 135.026 187.451C130.92 186.378 127.995 180.786 112.783 151.701L112.19 150.567C109.075 144.609 102.528 132.32 97.6427 123.259C91.4537 111.781 88.7862 105.804 88.8483 103.554C88.9334 100.446 97.928 81.448 99.3141 81.448C99.6864 81.448 102.007 85.2774 104.472 89.9589Z" fill="url(#paint9_linear_0_1)"/>
<defs>
<linearGradient id="paint0_linear_0_1" x1="218" y1="101.631" x2="611.12" y2="101.631" gradientUnits="userSpaceOnUse">
<stop offset="0.351106" stop-color="#7DB3D9"/>
</linearGradient>
<linearGradient id="paint1_linear_0_1" x1="218" y1="101.631" x2="611.12" y2="101.631" gradientUnits="userSpaceOnUse">
<stop offset="0.351106" stop-color="#7DB3D9"/>
</linearGradient>
<linearGradient id="paint2_linear_0_1" x1="218" y1="101.631" x2="611.12" y2="101.631" gradientUnits="userSpaceOnUse">
<stop offset="0.351106" stop-color="#7DB3D9"/>
</linearGradient>
<linearGradient id="paint3_linear_0_1" x1="218" y1="101.631" x2="611.12" y2="101.631" gradientUnits="userSpaceOnUse">
<stop offset="0.351106" stop-color="#7DB3D9"/>
</linearGradient>
<linearGradient id="paint4_linear_0_1" x1="218" y1="101.631" x2="611.12" y2="101.631" gradientUnits="userSpaceOnUse">
<stop offset="0.351106" stop-color="#7DB3D9"/>
</linearGradient>
<linearGradient id="paint5_linear_0_1" x1="218" y1="101.631" x2="611.12" y2="101.631" gradientUnits="userSpaceOnUse">
<stop offset="0.351106" stop-color="#7DB3D9"/>
</linearGradient>
<linearGradient id="paint6_linear_0_1" x1="218" y1="101.631" x2="611.12" y2="101.631" gradientUnits="userSpaceOnUse">
<stop offset="0.351106" stop-color="#7DB3D9"/>
</linearGradient>
<linearGradient id="paint7_linear_0_1" x1="173.523" y1="101.813" x2="566.643" y2="101.813" gradientUnits="userSpaceOnUse">
<stop stop-color="#89CEFF"/>
</linearGradient>
<linearGradient id="paint8_linear_0_1" x1="-85" y1="-3.40106e-06" x2="148.5" y2="263.5" gradientUnits="userSpaceOnUse">
<stop offset="0.464316" stop-color="#619DC8"/>
<stop offset="0.703442" stop-color="#89CAF8"/>
</linearGradient>
<linearGradient id="paint9_linear_0_1" x1="-85" y1="-3.40106e-06" x2="148.5" y2="263.5" gradientUnits="userSpaceOnUse">
<stop offset="0.464316" stop-color="#619DC8"/>
<stop offset="0.703442" stop-color="#89CAF8"/>
</linearGradient>
</defs>
</svg>
