<svg width="618" height="189" viewBox="0 0 618 189" fill="none" xmlns="http://www.w3.org/2000/svg">
<path d="M104.492 1.29324C106.805 2.31247 110.328 8.16693 123.548 32.9691C140.014 63.862 153.845 89.9445 157.743 97.4516C158.926 99.7294 161.925 105.3 164.41 109.831C166.895 114.363 175.571 130.573 183.689 145.852C197.797 172.403 198.428 173.842 197.939 178.314C197.278 184.352 193.796 187.705 188.183 187.705C183.498 187.705 179.655 184.459 175.964 177.389C171.644 169.114 167.016 160.514 163.196 153.661C161.14 149.973 157.879 143.938 155.951 140.25C154.021 136.562 148.498 126.117 143.679 117.039C138.859 107.961 133.453 97.7477 131.667 94.3433C122.577 77.0172 115.847 64.3644 110.272 54.1101C106.877 47.8689 103.123 40.7898 101.927 38.3779C100.732 35.966 99.4799 33.9936 99.1447 33.9936C98.8104 33.9936 96.6389 37.5918 94.319 41.9886C91.9991 46.3853 88.5941 52.769 86.7516 56.1734C84.9101 59.5777 80.815 67.2375 77.6535 73.1951C66.9328 93.3932 65.8609 95.3739 65.0983 96.4065C64.6789 96.9739 62.073 101.848 59.3068 107.239C56.5416 112.629 52.2799 120.753 49.838 125.292C47.8018 129.076 50.47 133.679 54.766 133.792L66.5197 134.102C90.432 134.733 94.6841 135.645 100.193 141.324C103.99 145.237 115.058 166.496 113.913 167.675C113.542 168.057 111.12 167.342 108.53 166.087C105.94 164.832 99.2227 162.219 93.6032 160.28L84.9704 157.303C83.9214 156.941 82.8194 156.756 81.7098 156.756H58.3571C55.3238 156.756 52.6564 156.736 50.302 156.718C39.7603 156.639 35.4927 156.607 32.7565 158.638C30.8954 160.019 29.7428 162.355 27.8061 166.28L27.8061 166.28L27.8057 166.281C27.1697 167.569 26.4492 169.029 25.5914 170.683C19.0531 183.287 17.3381 185.639 13.461 187.309C10.5817 188.548 9.62071 188.53 6.33406 187.175C4.24437 186.313 2.0197 184.759 1.39119 183.72C-0.388243 180.784 -0.476515 174.084 1.21785 170.677C3.57875 165.928 20.0702 134.778 21.148 133.029C22.8564 130.258 35.1002 106.918 35.1002 106.433C35.1002 106.173 36.6144 103.347 38.4659 100.152C40.3174 96.9574 43.537 91.0937 45.6217 87.1219C47.7053 83.1502 51.8436 75.2583 54.817 69.5844C57.7904 63.9105 60.6312 58.5719 61.1286 57.7208C62.7279 54.985 75.2514 31.8096 82.3121 18.5192C86.0802 11.4269 90.5167 4.34686 92.172 2.78705C95.4787 -0.331542 99.6534 -0.838072 104.492 1.29324Z" fill="url(#paint0_linear_8_14)"/>
<path d="M104.472 89.9589C106.936 94.6404 110.29 101.023 111.923 104.144C113.557 107.264 116.374 112.603 118.182 116.007C119.991 119.412 122.933 124.982 124.721 128.387C126.51 131.791 129.871 138.058 132.191 142.314C148.481 172.189 149.455 174.283 148.85 178.122C147.956 183.805 143.765 187.705 138.552 187.705L138.34 187.705C137.047 187.706 136.003 187.706 135.026 187.451C130.92 186.378 127.995 180.786 112.783 151.701L112.19 150.567C109.075 144.609 102.528 132.32 97.6427 123.259C91.4537 111.781 88.7862 105.804 88.8483 103.554C88.9334 100.446 97.928 81.448 99.3141 81.448C99.6864 81.448 102.007 85.2774 104.472 89.9589Z" fill="url(#paint1_linear_8_14)"/>
<path d="M353.417 120.389V88.2014L373.934 87.6135V72.2114H352.805L353.184 50.0315L338.903 49L338.928 100.065C338.943 130.194 339.363 152.956 339.951 155.585C342.348 166.299 348.67 170.419 363.675 171.05L373.934 171.481V155.978L364.975 155.617C359.39 155.393 355.528 154.752 354.717 153.917C353.706 152.875 353.417 145.409 353.417 120.389Z" fill="url(#paint2_linear_8_14)"/>
<path d="M353.417 120.389V88.2014L373.934 87.6135V72.2114H352.805L353.184 50.0315L338.903 49L338.928 100.065C338.943 130.194 339.363 152.956 339.951 155.585C342.348 166.299 348.67 170.419 363.675 171.05L373.934 171.481V155.978L364.975 155.617C359.39 155.393 355.528 154.752 354.717 153.917C353.706 152.875 353.417 145.409 353.417 120.389Z" fill="#6FB5E7" fill-opacity="0.2"/>
<path d="M413.958 86.6892L421.457 86.1382L422.102 71.1797L417.283 71.2715C411.156 71.3891 404.079 73.3915 399.515 76.2986L395.951 78.5693V72.2114H380.939V171.338L395.451 170.731L395.951 135.14C396.394 103.682 396.66 99.1193 398.241 95.8459C401.194 89.7346 405.332 87.3237 413.958 86.6892Z" fill="url(#paint3_linear_8_14)"/>
<path d="M413.958 86.6892L421.457 86.1382L422.102 71.1797L417.283 71.2715C411.156 71.3891 404.079 73.3915 399.515 76.2986L395.951 78.5693V72.2114H380.939V171.338L395.451 170.731L395.951 135.14C396.394 103.682 396.66 99.1193 398.241 95.8459C401.194 89.7346 405.332 87.3237 413.958 86.6892Z" fill="#6FB5E7" fill-opacity="0.2"/>
<path d="M529.622 94.1899C524.845 83.6158 515.589 75.7374 504.419 72.7385C498.257 71.0838 487.213 70.8559 480.427 72.2434C467.057 74.9751 456.333 85.545 451.729 100.529C448.783 110.117 448.63 132.401 451.448 141.33C456.485 157.289 465.85 166.946 479.933 170.708C495.822 174.953 514.555 169.577 523.642 158.167C527.052 153.885 533.06 141.994 533.061 139.525C533.062 138.608 530.897 138.235 525.569 138.235H518.077L516.688 141.663C514.905 146.062 509.539 152.36 505.942 154.278C502.973 155.86 485.298 156.397 478.987 155.096C474.067 154.081 468.618 147.851 466.394 140.697C463.531 131.484 463.788 108.993 466.849 100.966C469.629 93.6743 471.589 91.3438 477.119 88.7576C482.09 86.4333 497.627 85.8328 504.189 87.7114C508.501 88.9452 513.388 93.7846 515.814 99.2202L517.549 103.106L524.806 103.133C533.274 103.164 533.492 102.76 529.622 94.1899Z" fill="url(#paint4_linear_8_14)"/>
<path d="M529.622 94.1899C524.845 83.6158 515.589 75.7374 504.419 72.7385C498.257 71.0838 487.213 70.8559 480.427 72.2434C467.057 74.9751 456.333 85.545 451.729 100.529C448.783 110.117 448.63 132.401 451.448 141.33C456.485 157.289 465.85 166.946 479.933 170.708C495.822 174.953 514.555 169.577 523.642 158.167C527.052 153.885 533.06 141.994 533.061 139.525C533.062 138.608 530.897 138.235 525.569 138.235H518.077L516.688 141.663C514.905 146.062 509.539 152.36 505.942 154.278C502.973 155.86 485.298 156.397 478.987 155.096C474.067 154.081 468.618 147.851 466.394 140.697C463.531 131.484 463.788 108.993 466.849 100.966C469.629 93.6743 471.589 91.3438 477.119 88.7576C482.09 86.4333 497.627 85.8328 504.189 87.7114C508.501 88.9452 513.388 93.7846 515.814 99.2202L517.549 103.106L524.806 103.133C533.274 103.164 533.492 102.76 529.622 94.1899Z" fill="#6FB5E7" fill-opacity="0.2"/>
<path d="M606.502 78.7529C604.756 77.3809 600.692 75.2731 597.469 74.0713C592.984 72.398 588.794 71.8173 579.6 71.5945C558.907 71.0941 548.37 74.5161 543.323 83.3777C540.933 87.5753 540.581 89.2732 540.615 96.4543C540.688 112.28 546.37 117.354 573.595 125.901C593.375 132.111 599.45 135.126 601.955 139.972C604.568 145.03 602.121 152.975 597.378 154.834C595.925 155.403 589.723 156.146 583.596 156.484C564.781 157.524 557.188 154.137 554.826 143.651L553.606 138.235H539.79L540.322 144.283C541.286 155.245 546.399 163.587 554.89 168.052C564.363 173.034 592.801 173.776 602.607 169.299C612.933 164.584 617.105 157.198 617.12 143.61C617.14 126.108 611.677 121.298 580.601 111.461C571.244 108.5 561.917 105.113 559.876 103.937C553.694 100.373 552.916 94.025 558.072 89.2332C560.078 87.368 561.7 87.1699 574.95 87.1699C583.012 87.1699 591.3 87.5403 593.369 87.9922C597.819 88.965 600.275 92.2825 601.067 98.3938L601.618 102.644L616.416 103.256L615.744 97.3623C614.943 90.3359 610.912 82.2202 606.502 78.7529Z" fill="url(#paint5_linear_8_14)"/>
<path d="M606.502 78.7529C604.756 77.3809 600.692 75.2731 597.469 74.0713C592.984 72.398 588.794 71.8173 579.6 71.5945C558.907 71.0941 548.37 74.5161 543.323 83.3777C540.933 87.5753 540.581 89.2732 540.615 96.4543C540.688 112.28 546.37 117.354 573.595 125.901C593.375 132.111 599.45 135.126 601.955 139.972C604.568 145.03 602.121 152.975 597.378 154.834C595.925 155.403 589.723 156.146 583.596 156.484C564.781 157.524 557.188 154.137 554.826 143.651L553.606 138.235H539.79L540.322 144.283C541.286 155.245 546.399 163.587 554.89 168.052C564.363 173.034 592.801 173.776 602.607 169.299C612.933 164.584 617.105 157.198 617.12 143.61C617.14 126.108 611.677 121.298 580.601 111.461C571.244 108.5 561.917 105.113 559.876 103.937C553.694 100.373 552.916 94.025 558.072 89.2332C560.078 87.368 561.7 87.1699 574.95 87.1699C583.012 87.1699 591.3 87.5403 593.369 87.9922C597.819 88.965 600.275 92.2825 601.067 98.3938L601.618 102.644L616.416 103.256L615.744 97.3623C614.943 90.3359 610.912 82.2202 606.502 78.7529Z" fill="#6FB5E7" fill-opacity="0.2"/>
<path d="M331.4 170.731L331.916 49.5156H316.872L317.388 170.731H331.4Z" fill="url(#paint6_linear_8_14)"/>
<path d="M331.4 170.731L331.916 49.5156H316.872L317.388 170.731H331.4Z" fill="#6FB5E7" fill-opacity="0.2"/>
<path d="M442.489 170.731V72.7273L427.977 72.1206V171.338L442.489 170.731Z" fill="url(#paint7_linear_8_14)"/>
<path d="M442.489 170.731V72.7273L427.977 72.1206V171.338L442.489 170.731Z" fill="#6FB5E7" fill-opacity="0.2"/>
<path fill-rule="evenodd" clip-rule="evenodd" d="M280.619 73.0862C283.887 74.1353 288.655 76.4781 291.216 78.2937L295.87 81.595V72.2114H310.902V95.8459L310.643 121.471L310.382 170.731H296.371L296.064 166.347C295.894 163.936 295.526 161.962 295.246 161.962C294.966 161.962 293.183 163.183 291.287 164.675C286.136 168.724 275.714 172.28 269.054 172.263C262.09 172.244 252.231 169.946 246.549 167.015C244.226 165.817 240.026 162.402 237.214 159.425C226.746 148.341 222.395 132.21 224.528 112.4C225.141 106.699 226.077 101.476 226.607 100.792C227.137 100.109 227.913 98.3887 228.331 96.9702C230.131 90.8599 238.486 80.9338 245.285 76.8259C254.565 71.2201 269.782 69.6096 280.619 73.0862ZM241.709 102.953C244.216 96.3276 249.805 90.0182 254.925 88.0303C257.14 87.1709 262.385 86.7871 269.85 86.9377C279.914 87.143 281.827 87.4721 285.094 89.5642C293.531 94.9699 296.292 104.01 295.69 124.26C295.338 136.1 294.974 138.425 292.664 143.582C290.731 147.896 288.891 150.213 285.698 152.351C281.705 155.025 280.46 155.285 270.094 155.604C260.156 155.91 258.298 155.686 254.332 153.707C248.622 150.858 243.396 144.584 241.11 137.832C238.395 129.816 238.721 110.848 241.709 102.953Z" fill="url(#paint8_linear_8_14)"/>
<path fill-rule="evenodd" clip-rule="evenodd" d="M280.619 73.0862C283.887 74.1353 288.655 76.4781 291.216 78.2937L295.87 81.595V72.2114H310.902V95.8459L310.643 121.471L310.382 170.731H296.371L296.064 166.347C295.894 163.936 295.526 161.962 295.246 161.962C294.966 161.962 293.183 163.183 291.287 164.675C286.136 168.724 275.714 172.28 269.054 172.263C262.09 172.244 252.231 169.946 246.549 167.015C244.226 165.817 240.026 162.402 237.214 159.425C226.746 148.341 222.395 132.21 224.528 112.4C225.141 106.699 226.077 101.476 226.607 100.792C227.137 100.109 227.913 98.3887 228.331 96.9702C230.131 90.8599 238.486 80.9338 245.285 76.8259C254.565 71.2201 269.782 69.6096 280.619 73.0862ZM241.709 102.953C244.216 96.3276 249.805 90.0182 254.925 88.0303C257.14 87.1709 262.385 86.7871 269.85 86.9377C279.914 87.143 281.827 87.4721 285.094 89.5642C293.531 94.9699 296.292 104.01 295.69 124.26C295.338 136.1 294.974 138.425 292.664 143.582C290.731 147.896 288.891 150.213 285.698 152.351C281.705 155.025 280.46 155.285 270.094 155.604C260.156 155.91 258.298 155.686 254.332 153.707C248.622 150.858 243.396 144.584 241.11 137.832C238.395 129.816 238.721 110.848 241.709 102.953Z" fill="#6FB5E7" fill-opacity="0.2"/>
<path d="M442.512 64.0491V49.6064L428 49V64.6558L442.512 64.0491Z" fill="url(#paint9_linear_8_14)"/>
<defs>
<linearGradient id="paint0_linear_8_14" x1="-85" y1="-3.40106e-06" x2="148.5" y2="263.5" gradientUnits="userSpaceOnUse">
<stop offset="0.464316" stop-color="#619DC8"/>
<stop offset="0.703442" stop-color="#89CAF8"/>
</linearGradient>
<linearGradient id="paint1_linear_8_14" x1="-85" y1="-3.40106e-06" x2="148.5" y2="263.5" gradientUnits="userSpaceOnUse">
<stop offset="0.464316" stop-color="#619DC8"/>
<stop offset="0.703442" stop-color="#89CAF8"/>
</linearGradient>
<linearGradient id="paint2_linear_8_14" x1="224" y1="110.631" x2="617.12" y2="110.631" gradientUnits="userSpaceOnUse">
<stop offset="0.351106" stop-color="#7DB3D9"/>
<stop offset="0.692308" stop-color="#518CB5"/>
</linearGradient>
<linearGradient id="paint3_linear_8_14" x1="224" y1="110.631" x2="617.12" y2="110.631" gradientUnits="userSpaceOnUse">
<stop offset="0.351106" stop-color="#7DB3D9"/>
<stop offset="0.692308" stop-color="#518CB5"/>
</linearGradient>
<linearGradient id="paint4_linear_8_14" x1="224" y1="110.631" x2="617.12" y2="110.631" gradientUnits="userSpaceOnUse">
<stop offset="0.351106" stop-color="#7DB3D9"/>
<stop offset="0.692308" stop-color="#518CB5"/>
</linearGradient>
<linearGradient id="paint5_linear_8_14" x1="224" y1="110.631" x2="617.12" y2="110.631" gradientUnits="userSpaceOnUse">
<stop offset="0.351106" stop-color="#7DB3D9"/>
<stop offset="0.692308" stop-color="#518CB5"/>
</linearGradient>
<linearGradient id="paint6_linear_8_14" x1="224" y1="110.631" x2="617.12" y2="110.631" gradientUnits="userSpaceOnUse">
<stop offset="0.351106" stop-color="#7DB3D9"/>
<stop offset="0.692308" stop-color="#518CB5"/>
</linearGradient>
<linearGradient id="paint7_linear_8_14" x1="224" y1="110.631" x2="617.12" y2="110.631" gradientUnits="userSpaceOnUse">
<stop offset="0.351106" stop-color="#7DB3D9"/>
<stop offset="0.692308" stop-color="#518CB5"/>
</linearGradient>
<linearGradient id="paint8_linear_8_14" x1="224" y1="110.631" x2="617.12" y2="110.631" gradientUnits="userSpaceOnUse">
<stop offset="0.351106" stop-color="#7DB3D9"/>
<stop offset="0.692308" stop-color="#518CB5"/>
</linearGradient>
<linearGradient id="paint9_linear_8_14" x1="179.523" y1="110.813" x2="572.643" y2="110.813" gradientUnits="userSpaceOnUse">
<stop stop-color="#89CEFF"/>
</linearGradient>
</defs>
</svg>
